<svg xmlns="http://www.w3.org/2000/svg" viewBox="0 0 595.28 177.29"><defs><style>.cls-1{fill:none;}.cls-2{fill:#2e60aa;}.cls-3{fill:#71c6dd;}</style></defs><g id="Camada_2" data-name="Camada 2"><g id="Camada_1-2" data-name="Camada 1"><rect class="cls-1" width="595.28" height="177.29"/><path class="cls-2" d="M257.76,53.85V73.54c-11.21-3.91-20.46-5.87-28-5.87-5.55,0-8.27,1.3-8.27,3.91,0,3.16,2.72,2.73,5.77,3.7l1.74.33c2,.33,3.59.65,4.79,1A46.31,46.31,0,0,1,239.58,78,43.45,43.45,0,0,1,246,80.18c3.49,1.42,8.49,4.36,11.1,7.51a20.33,20.33,0,0,1,4.79,13c0,18.07-11,27.21-33.08,27.32-10.12,0-21.55-1.74-34.17-5.33v-22c12.73,6.21,24.59,9.14,32.21,9.14,5.77,0,9.14-1.52,9.14-4.24,0-2.07-.76-2.94-2.39-3.48l-1.63-.44a25.74,25.74,0,0,0-4.68-.87c-1.2-.33-5.12-.87-7.19-1.2l-4-1a41.33,41.33,0,0,1-8.27-2.93c-6.75-3.16-12-9.15-12-19.81,0-19,17-26.23,35.37-26.23A84.24,84.24,0,0,1,257.76,53.85Z"/><path class="cls-2" d="M336.66,69.73h-38v7.62H335V96.4H298.68v11.42H337.2v19.05H272.89V50.69h63.77Z"/><path class="cls-2" d="M347,50.69h40.37c15.57,0,28.63,7,28.63,24.38,0,10.55-4.58,17.85-13.72,21.65l20.24,30.15H394.88L376.49,99.44h-3.7v27.43H347Zm25.68,18,.11,12.84h10.45c4.46,0,7.4-2.07,7.4-6.42s-3.16-6.42-7.4-6.42Z"/><path class="cls-2" d="M511,126.87H484.56l-3.7-11.21H456.48l-3.7,11.21H426.33l28.73-76.18h27.32ZM462.14,98.79h13.17L468.67,79.2Z"/><path class="cls-2" d="M579.24,54.93V77.79c-10.45-5.55-18.83-8.38-25.25-8.38-9.68,0-14.58,6.42-14.58,19.37s4.9,19.37,14.58,19.37c6.42,0,14.8-2.72,25.25-8.27v22.85a69.86,69.86,0,0,1-26.34,5c-21.76,0-41.9-10.67-41.9-39s20.57-39,42-39A70.42,70.42,0,0,1,579.24,54.93Z"/><path class="cls-3" d="M122.2,42.48l9.91-12.41a73.28,73.28,0,0,0-86-.16l10.1,12.35C91.85,18.47,122.2,42.48,122.2,42.48Z"/><path class="cls-2" d="M137.34,34.27,126.7,45.87a56.75,56.75,0,1,1-75.6.18L40.83,34.12A72.25,72.25,0,0,0,16,88.64c0,40.1,32.67,72.61,73,72.61s73-32.51,73-72.61A72.26,72.26,0,0,0,137.34,34.27Z"/><path class="cls-2" d="M110.45,97.17,92.33,47.11,90.86,82.67a3.81,3.81,0,1,1-4,.35,1.28,1.28,0,0,1,.37-.27l1.9-35.81L67.89,97.55l13.39,29.33H77.74v7h22.37v-7.12H97Z"/></g></g></svg>